<?xml version="1.0" encoding="UTF-8" standalone="no"?>
<svg
   version="1.0"
   width="740.000000pt"
   height="540.000000pt"
   viewBox="0 0 740.000000 540.000000"
   preserveAspectRatio="xMidYMid meet"
   id="svg28"
   sodipodi:docname="Nelo-Kayaks-Italia.svg"
   inkscape:version="1.2 (56b05e47e7, 2022-06-09, custom)"
   xmlns:inkscape="http://www.inkscape.org/namespaces/inkscape"
   xmlns:sodipodi="http://sodipodi.sourceforge.net/DTD/sodipodi-0.dtd"
   xmlns="http://www.w3.org/2000/svg"
   xmlns:svg="http://www.w3.org/2000/svg">
  <defs
     id="defs32" />
  <sodipodi:namedview
     id="namedview30"
     pagecolor="#ffffff"
     bordercolor="#cccccc"
     borderopacity="1"
     inkscape:showpageshadow="0"
     inkscape:pageopacity="1"
     inkscape:pagecheckerboard="0"
     inkscape:deskcolor="#d1d1d1"
     inkscape:document-units="pt"
     showgrid="false"
     inkscape:zoom="0.83477884"
     inkscape:cx="220.41766"
     inkscape:cy="416.27792"
     inkscape:window-width="1864"
     inkscape:window-height="1016"
     inkscape:window-x="56"
     inkscape:window-y="27"
     inkscape:window-maximized="1"
     inkscape:current-layer="svg28" />
  <metadata
     id="metadata18">
Created by potrace 1.16, written by Peter Selinger 2001-2019
</metadata>
  <g
     transform="translate(0.000000,540.000000) scale(0.100000,-0.100000)"
     fill="#000000"
     stroke="none"
     id="g26">
    <path
       d="M0 2700 l0 -2700 3700 0 3700 0 0 2700 0 2700 -3700 0 -3700 0 0 -2700z m3921 710 l2865 -19 67 -24 c168 -61 290 -169 364 -322 61 -127 76 -207 70 -385 -5 -161 -18 -225 -72 -335 -67 -139 -187 -248 -346 -316 l-74 -32 -1130 7 c-621 3 -2028 10 -3125 15 -1493 7 -2007 12 -2040 21 -168 45 -298 193 -360 410 -27 94 -39 360 -21 465 49 279 192 458 417 520 66 18 41 18 3385 -5z"
       id="path20" />
    <path
       d="M580 3369 c-114 -23 -220 -91 -291 -187 -89 -122 -121 -244 -121 -467 0 -185 17 -280 73 -394 73 -149 199 -248 329 -257 53 -4 4567 -26 5681 -28 l546 -1 88 44 c152 77 265 213 317 381 20 66 23 95 22 235 0 145 -3 167 -27 240 -60 181 -197 322 -373 384 -58 19 -89 20 -1859 30 -2946 18 -3398 21 -3880 25 -261 3 -479 1 -505 -5z m470 -171 c227 -173 612 -458 619 -458 16 0 23 121 12 200 -10 76 -44 175 -81 237 -11 19 -20 38 -20 44 0 5 93 9 230 9 l230 0 20 -32 c25 -40 64 -160 81 -248 20 -103 16 -310 -9 -406 -25 -97 -59 -184 -106 -268 l-35 -63 -158 -6 c-87 -4 -191 -7 -230 -7 -73 0 -73 0 -126 48 -30 26 -65 56 -78 66 -29 24 -292 248 -369 316 -101 87 -120 101 -128 96 -13 -8 -14 -119 -1 -188 19 -104 65 -218 115 -284 13 -17 20 -34 17 -38 -4 -3 -115 -6 -248 -6 -186 0 -245 3 -253 13 -13 16 -66 176 -83 254 -18 77 -18 341 -1 413 24 97 54 183 93 268 l38 82 208 0 208 0 55 -42z m2488 3 l223 -6 -93 -122 -93 -123 -207 0 -207 0 -41 -42 c-46 -48 -58 -77 -39 -89 8 -5 46 -9 84 -10 39 -1 102 -4 142 -8 l72 -6 -41 -72 -42 -72 -96 6 -97 6 -25 -34 c-39 -52 -43 -75 -16 -93 19 -11 83 -15 340 -18 174 -2 319 -6 323 -9 6 -6 -38 -72 -161 -243 l-49 -68 -340 7 -340 7 -59 31 c-70 37 -146 103 -188 164 -53 78 -70 136 -75 265 -5 100 -2 127 16 186 41 136 137 243 285 317 l69 35 216 -1 c119 -1 316 -4 439 -8z m1242 -7 c0 -3 -11 -20 -24 -37 -37 -49 -104 -194 -122 -267 -37 -146 7 -280 119 -361 l40 -29 244 0 c133 0 243 -3 243 -8 0 -7 -178 -210 -237 -269 l-32 -33 -286 0 c-325 0 -351 5 -452 81 -113 85 -172 220 -180 410 -8 171 30 314 119 457 l40 62 264 0 c145 0 264 -3 264 -6z m1959 -56 c147 -75 231 -178 271 -334 32 -126 20 -239 -38 -357 -41 -82 -80 -128 -155 -180 -121 -85 -117 -84 -507 -88 l-345 -4 -88 42 c-195 94 -297 254 -297 468 0 94 18 167 61 251 43 85 109 146 214 199 l89 45 355 0 355 0 85 -42z"
       id="path22" />
    <path
       d="M6200 2954 c-87 -33 -152 -94 -176 -167 -32 -97 -19 -202 38 -284 56 -82 119 -113 232 -113 83 0 134 20 195 75 63 57 95 134 96 225 0 86 -15 120 -79 179 -67 63 -119 84 -210 88 -45 1 -88 0 -96 -3z"
       id="path24" />
  </g>
  <path
     style="fill:#f6d709;stroke-width:1.19981;fill-opacity:1"
     d="m 206.0426,425.64699 c -1.31772,-0.27411 -20.66331,-16.10567 -42.99019,-35.18125 -22.3269,-19.07559 -41.28155,-34.68288 -42.12146,-34.68288 -2.23111,0 -3.29373,8.42018 -2.31308,18.32876 1.52548,15.41351 7.79262,33.26836 16.10353,45.87837 l 2.44653,3.71207 -18.57572,0.82869 c -10.21665,0.45578 -24.81373,0.45574 -32.437966,-8e-5 -16.521362,-0.98773 -15.28253,0.17907 -21.480949,-20.23197 -5.234285,-17.2362 -6.927238,-35.14461 -5.350794,-56.60182 1.156754,-15.74473 4.498551,-27.8475 13.06535,-47.31792 l 5.138974,-11.67974 h 27.388365 27.38837 l 26.68718,20.09492 c 14.67795,11.05221 35.00398,26.1769 45.16895,33.61044 21.70104,15.86974 21.0498,15.97526 20.93714,-3.39263 -0.0852,-14.64843 -2.93893,-26.56077 -9.46961,-39.52895 l -4.17154,-8.28358 3.88203,-0.70135 c 2.13511,-0.38574 15.74146,-0.54398 30.23632,-0.35166 l 26.35428,0.34969 3.8446,7.84555 c 2.11454,4.31505 5.18135,13.20962 6.81516,19.76571 7.9667,31.96865 4.15455,64.17368 -11.12427,93.97783 -5.82735,11.36734 -5.83993,11.38109 -11.07018,12.10812 -6.66311,0.92621 -51.16483,2.11645 -54.35102,1.45368 z"
     id="path7435"
     transform="scale(0.75)" />
  <path
     style="fill:#f6d709;fill-opacity:1;stroke-width:1.19981"
     d="m 411.48623,425.31254 -32.94285,-0.70938 -7.50828,-4.04137 c -14.19725,-7.64175 -27.54508,-22.16945 -32.04906,-34.88202 -2.47018,-6.97212 -4.04464,-29.08876 -2.74652,-38.58076 1.20909,-8.84109 6.47721,-20.65747 12.93973,-29.02381 5.45564,-7.06283 13.08031,-13.09251 26.00587,-20.56577 l 9.34787,-5.40471 41.92727,0.70559 c 23.06,0.38807 48.99014,1.03024 57.62253,1.42704 l 15.69526,0.72146 -11.50253,15.37652 -11.50253,15.37652 -27.73149,0.0615 -27.73149,0.0615 -6.10981,6.68511 c -6.00063,6.56565 -7.47105,10.30104 -4.72343,11.99916 1.22591,0.75765 25.20471,2.67161 35.35562,2.82203 l 3.79914,0.0563 -4.99707,9.09309 -4.99706,9.0931 -13.38315,-0.6587 -13.38315,-0.6587 -3.68724,5.74607 c -4.38141,6.82783 -4.66307,10.31815 -0.99191,12.29142 1.84498,0.99169 15.90239,1.77182 44.55754,2.47276 23.02423,0.56321 42.12921,1.29101 42.45554,1.61734 0.53597,0.53597 -9.05732,15.00439 -21.94469,33.09654 l -4.87281,6.84077 -11.97922,-0.15458 c -6.58857,-0.085 -26.80351,-0.4738 -44.92208,-0.86397 z"
     id="path7437"
     transform="scale(0.75)" />
  <path
     style="fill:#f6d709;fill-opacity:1;stroke-width:1.19981"
     d="m 594.63105,426.44942 c -11.60748,-1.11175 -21.22329,-6.03335 -30.22347,-15.46909 -12.5796,-13.1884 -17.61247,-28.40262 -17.66492,-53.40059 -0.0471,-22.44731 3.79038,-35.93971 15.97363,-56.16248 l 4.96758,-8.24559 33.31421,0.5652 c 18.32282,0.31086 33.63973,0.89072 34.03758,1.28857 0.39785,0.39786 -0.34639,2.23684 -1.65386,4.08663 -3.9264,5.55498 -11.73645,21.97405 -14.70554,30.91546 -5.66391,17.05683 -2.84684,34.97764 7.31264,46.51941 9.11544,10.35569 9.16921,10.36991 39.5982,10.47068 14.74653,0.0488 29.12918,0.45314 31.96146,0.89845 l 5.14961,0.80964 -11.55514,13.17715 c -6.35532,7.24743 -14.31441,16.00723 -17.68686,19.46623 l -6.13173,6.28909 -31.78586,-0.16755 c -17.48222,-0.0921 -35.89061,-0.5607 -40.90753,-1.04121 z"
     id="path7439"
     transform="scale(0.75)" />
  <path
     style="fill:#f6d709;fill-opacity:1;stroke-width:1.19981"
     d="m 784.32939,423.81012 c -5.44112,-2.82499 -12.54306,-7.24976 -15.78208,-9.83282 -19.14261,-15.26585 -27.74848,-41.09122 -22.28469,-66.87425 4.25086,-20.05941 15.56916,-34.42398 34.97286,-44.38566 l 10.97158,-5.63272 48.32556,7e-5 48.32556,6e-5 10.08225,5.69007 c 18.01502,10.16704 26.67707,20.00115 32.97336,37.435 6.4298,17.80358 5.2516,36.49895 -3.37785,53.59899 -5.3335,10.5688 -11.7576,17.70303 -22.32537,24.79322 -14.02492,9.40972 -13.65855,9.35476 -65.86823,9.88022 l -46.12,0.46419 z m 71.75938,-25.29316 c 12.55475,-6.2056 20.9542,-19.01405 22.17643,-33.8172 1.06498,-12.89859 -0.74261,-17.68004 -10.20791,-27.00193 -8.91267,-8.77764 -14.21101,-11.15693 -27.8773,-12.51865 -11.5427,-1.15013 -19.43736,1.43396 -27.8385,9.11212 -9.0239,8.24734 -11.88829,15.79861 -11.33314,29.87701 0.31954,8.10341 1.06299,11.52917 3.64133,16.77897 4.09639,8.34072 11.74882,16.12275 18.15436,18.46181 7.05945,2.57785 27.36562,2.03359 33.28473,-0.89213 z"
     id="path7441"
     transform="scale(0.75)" />
  <path
     style="fill:#f6d709;fill-opacity:1;stroke-width:1.19981"
     d="M 755.88883,455.12249 C 675.50826,454.60904 494.11291,453.56573 352.78805,452.80402 211.46319,452.04232 88.784134,451.04426 80.167917,450.5861 65.774766,449.82078 63.8573,449.43569 56.565521,445.84596 37.07228,436.24947 21.266254,411.90352 17.537265,385.73091 c -5.105378,-35.83305 -1.158156,-65.8578 11.483251,-87.34795 9.900443,-16.83056 28.672165,-30.49548 46.448575,-33.81235 7.888499,-1.47191 81.555219,-1.20438 555.835839,2.01855 l 273.12624,1.85601 8.38545,3.09577 c 23.80463,8.78825 39.8406,23.51038 50.21382,46.09975 6.73959,14.67655 8.31016,24.58166 7.54858,47.60672 -0.74921,22.65134 -2.23628,29.72466 -9.21738,43.84298 -6.11699,12.37075 -13.70882,21.7411 -23.74077,29.30245 -8.28753,6.24652 -27.30747,16.2581 -32.59074,17.15486 -1.64714,0.27958 -68.76073,0.0883 -149.1413,-0.42521 z m 159.64971,-10.55733 c 18.82714,-9.46842 31.46689,-21.86409 39.83782,-39.06854 7.34677,-15.09955 8.63641,-22.74419 8.08348,-47.91688 -0.45415,-20.67561 -0.62782,-21.97028 -4.22175,-31.47319 -7.64731,-20.22062 -21.47514,-35.92813 -39.48981,-44.8578 -8.52483,-4.22566 -11.37304,-5.00662 -21.32044,-5.84592 -10.92588,-0.92186 -92.12323,-1.57508 -598.34836,-4.8136 -207.480959,-1.32734 -220.222114,-1.28965 -227.006233,0.67163 -18.211678,5.26495 -32.991485,17.62868 -41.272544,34.52565 -8.170124,16.67062 -9.040184,21.71303 -9.040184,52.39219 0,30.57017 0.821387,35.3492 9.037447,52.58211 6.389419,13.40161 19.742834,27.11829 30.493982,31.32356 l 7.187532,2.81138 97.63065,0.9704 c 104.76731,1.04135 465.02822,2.83135 635.22477,3.15622 l 103.94633,0.19841 z"
     id="path7443"
     transform="scale(0.75)" />
</svg>
