<?xml version="1.0" standalone="no"?>
<!DOCTYPE svg PUBLIC "-//W3C//DTD SVG 20010904//EN"
 "http://www.w3.org/TR/2001/REC-SVG-20010904/DTD/svg10.dtd">
<svg version="1.0" xmlns="http://www.w3.org/2000/svg"
 width="740.000000pt" height="540.000000pt" viewBox="0 0 740.000000 540.000000"
 preserveAspectRatio="xMidYMid meet">
<metadata>
Created by potrace 1.16, written by Peter Selinger 2001-2019
</metadata>
<g transform="translate(0.000000,540.000000) scale(0.100000,-0.100000)"
fill="#000000" stroke="none">
<path d="M0 2700 l0 -2700 3700 0 3700 0 0 2700 0 2700 -3700 0 -3700 0 0
-2700z m3921 710 l2865 -19 67 -24 c168 -61 290 -169 364 -322 61 -127 76
-207 70 -385 -5 -161 -18 -225 -72 -335 -67 -139 -187 -248 -346 -316 l-74
-32 -1130 7 c-621 3 -2028 10 -3125 15 -1493 7 -2007 12 -2040 21 -168 45
-298 193 -360 410 -27 94 -39 360 -21 465 49 279 192 458 417 520 66 18 41 18
3385 -5z"/>
<path d="M580 3369 c-114 -23 -220 -91 -291 -187 -89 -122 -121 -244 -121
-467 0 -185 17 -280 73 -394 73 -149 199 -248 329 -257 53 -4 4567 -26 5681
-28 l546 -1 88 44 c152 77 265 213 317 381 20 66 23 95 22 235 0 145 -3 167
-27 240 -60 181 -197 322 -373 384 -58 19 -89 20 -1859 30 -2946 18 -3398 21
-3880 25 -261 3 -479 1 -505 -5z m470 -171 c227 -173 612 -458 619 -458 16 0
23 121 12 200 -10 76 -44 175 -81 237 -11 19 -20 38 -20 44 0 5 93 9 230 9
l230 0 20 -32 c25 -40 64 -160 81 -248 20 -103 16 -310 -9 -406 -25 -97 -59
-184 -106 -268 l-35 -63 -158 -6 c-87 -4 -191 -7 -230 -7 -73 0 -73 0 -126 48
-30 26 -65 56 -78 66 -29 24 -292 248 -369 316 -101 87 -120 101 -128 96 -13
-8 -14 -119 -1 -188 19 -104 65 -218 115 -284 13 -17 20 -34 17 -38 -4 -3
-115 -6 -248 -6 -186 0 -245 3 -253 13 -13 16 -66 176 -83 254 -18 77 -18 341
-1 413 24 97 54 183 93 268 l38 82 208 0 208 0 55 -42z m2488 3 l223 -6 -93
-122 -93 -123 -207 0 -207 0 -41 -42 c-46 -48 -58 -77 -39 -89 8 -5 46 -9 84
-10 39 -1 102 -4 142 -8 l72 -6 -41 -72 -42 -72 -96 6 -97 6 -25 -34 c-39 -52
-43 -75 -16 -93 19 -11 83 -15 340 -18 174 -2 319 -6 323 -9 6 -6 -38 -72
-161 -243 l-49 -68 -340 7 -340 7 -59 31 c-70 37 -146 103 -188 164 -53 78
-70 136 -75 265 -5 100 -2 127 16 186 41 136 137 243 285 317 l69 35 216 -1
c119 -1 316 -4 439 -8z m1242 -7 c0 -3 -11 -20 -24 -37 -37 -49 -104 -194
-122 -267 -37 -146 7 -280 119 -361 l40 -29 244 0 c133 0 243 -3 243 -8 0 -7
-178 -210 -237 -269 l-32 -33 -286 0 c-325 0 -351 5 -452 81 -113 85 -172 220
-180 410 -8 171 30 314 119 457 l40 62 264 0 c145 0 264 -3 264 -6z m1959 -56
c147 -75 231 -178 271 -334 32 -126 20 -239 -38 -357 -41 -82 -80 -128 -155
-180 -121 -85 -117 -84 -507 -88 l-345 -4 -88 42 c-195 94 -297 254 -297 468
0 94 18 167 61 251 43 85 109 146 214 199 l89 45 355 0 355 0 85 -42z"/>
<path d="M6200 2954 c-87 -33 -152 -94 -176 -167 -32 -97 -19 -202 38 -284 56
-82 119 -113 232 -113 83 0 134 20 195 75 63 57 95 134 96 225 0 86 -15 120
-79 179 -67 63 -119 84 -210 88 -45 1 -88 0 -96 -3z"/>
</g>
</svg>
