<?xml version="1.0" encoding="UTF-8" standalone="no"?>
<!-- Generator: Adobe Illustrator 23.0.3, SVG Export Plug-In . SVG Version: 6.00 Build 0)  -->

<svg
   version="1.1"
   id="Icons"
   x="0px"
   y="0px"
   viewBox="0 0 32 32"
   style="enable-background:new 0 0 32 32;"
   xml:space="preserve"
   sodipodi:docname="12902564651595759873.svg"
   inkscape:version="1.2 (56b05e47e7, 2022-06-09, custom)"
   xmlns:inkscape="http://www.inkscape.org/namespaces/inkscape"
   xmlns:sodipodi="http://sodipodi.sourceforge.net/DTD/sodipodi-0.dtd"
   xmlns="http://www.w3.org/2000/svg"
   xmlns:svg="http://www.w3.org/2000/svg"><defs
   id="defs23" /><sodipodi:namedview
   id="namedview21"
   pagecolor="#ffffff"
   bordercolor="#cccccc"
   borderopacity="1"
   inkscape:showpageshadow="0"
   inkscape:pageopacity="1"
   inkscape:pagecheckerboard="0"
   inkscape:deskcolor="#d1d1d1"
   showgrid="false"
   inkscape:zoom="26.5625"
   inkscape:cx="8.4894118"
   inkscape:cy="16.018824"
   inkscape:window-width="1864"
   inkscape:window-height="1016"
   inkscape:window-x="56"
   inkscape:window-y="27"
   inkscape:window-maximized="1"
   inkscape:current-layer="Icons" />
<style
   type="text/css"
   id="style2">
	.st0{fill:none;stroke:#000000;stroke-width:2;stroke-linecap:round;stroke-linejoin:round;stroke-miterlimit:10;}
</style>
<circle
   class="st0"
   cx="15"
   cy="16"
   r="3"
   id="circle4" />
<polyline
   class="st0"
   points="9,28 15,19 21,28 "
   id="polyline6" />
<line
   class="st0"
   x1="15"
   y1="30"
   x2="15"
   y2="19"
   id="line8" />
<rect
   x="1.8"
   y="14.3"
   transform="matrix(0.9285 -0.3714 0.3714 0.9285 -5.6423 3.0714)"
   class="st0"
   width="6.7"
   height="3.9"
   id="rect10" />
<rect
   x="19.6"
   y="4.6"
   transform="matrix(0.9285 -0.3714 0.3714 0.9285 -1.4061 9.6694)"
   class="st0"
   width="9.6"
   height="7.7"
   id="rect12" />
<line
   class="st0"
   x1="12"
   y1="16.6"
   x2="9.4"
   y2="17.6"
   id="line14" />
<line
   class="st0"
   x1="21"
   y1="13"
   x2="17.5"
   y2="14.4"
   id="line16" />
<line
   class="st0"
   x1="7.2"
   y1="12.2"
   x2="18.9"
   y2="7.6"
   id="line18" />
<path
   style="fill:#1565c0;stroke-width:0.0377063;fill-opacity:1"
   d="m 14.715568,30.933848 c -0.313225,-0.117206 -0.509827,-0.303492 -0.642876,-0.609142 -0.03902,-0.08964 -0.05305,-0.931528 -0.06799,-4.080118 l -0.01882,-3.967175 -2.136212,3.204399 c -2.2885748,3.43295 -2.2467704,3.377767 -2.6281686,3.469263 -0.2456558,0.05893 -0.4601939,0.02415 -0.7016637,-0.11376 -0.4021116,-0.229656 -0.5828559,-0.663412 -0.4603233,-1.104699 0.02299,-0.0828 1.1699256,-1.839738 2.6727316,-4.094246 1.447853,-2.172069 2.632172,-3.961863 2.631821,-3.977322 -3.39e-4,-0.01546 -0.114705,-0.08967 -0.254118,-0.164925 -0.52188,-0.281689 -1.11209,-0.821748 -1.421065,-1.300313 -0.08253,-0.127835 -0.167002,-0.257975 -0.187708,-0.289202 -0.0321,-0.04841 -0.173614,-0.004 -0.96,0.301293 -0.7490593,0.290795 -0.9612551,0.358557 -1.1294113,0.360661 -0.2841472,0.0036 -0.5656414,-0.123055 -0.7480572,-0.336463 L 8.5212728,18.065464 5.7759304,19.165675 C 3.1742643,20.208307 3.0176705,20.265984 2.783758,20.267753 2.5758883,20.269326 2.5045802,20.251389 2.3319933,20.154124 2.2109394,20.085901 2.0792383,19.971013 2.0102251,19.873432 1.9434115,19.778961 1.5686716,18.893613 1.134931,17.805491 0.44345502,16.07079 0.37654361,15.882936 0.37729739,15.678432 c 0.001417,-0.384414 0.19041715,-0.69399 0.52623202,-0.86195 0.0931765,-0.0466 1.34819029,-0.555425 2.78891949,-1.130717 l 2.6195078,-1.045986 -0.055043,-0.197758 c -0.034485,-0.123897 -0.045821,-0.259257 -0.030351,-0.362417 0.03169,-0.211322 0.2129156,-0.528509 0.3704949,-0.648451 0.067618,-0.05147 2.5610963,-1.052098 5.5410624,-2.2236221 2.979965,-1.1715245 5.425385,-2.1373101 5.434264,-2.1461899 0.0089,-0.00888 -0.0024,-0.1025916 -0.02505,-0.2082481 -0.07187,-0.3351149 0.0799,-0.7556668 0.345273,-0.956724 0.152052,-0.1152028 9.21322,-3.7446022 9.424031,-3.7747424 0.254542,-0.036393 0.553047,0.072975 0.764042,0.2799313 0.179251,0.1758204 0.192896,0.207731 1.673553,3.9137533 1.58603,3.9697659 1.554803,3.8785129 1.448555,4.2331369 -0.05904,0.197051 -0.30107,0.465516 -0.515788,0.572119 -0.09573,0.04753 -2.181585,0.88955 -4.635232,1.871159 -4.313619,1.725712 -4.469271,1.784687 -4.705883,1.783011 -0.331247,-0.0023 -0.603945,-0.148064 -0.798417,-0.426638 l -0.06251,-0.08955 -0.821299,0.328354 c -0.451714,0.180596 -0.823451,0.33101 -0.826081,0.334255 -0.0026,0.0032 0.02673,0.15837 0.06525,0.344723 0.341138,1.650472 -0.498943,3.396949 -2.044843,4.251102 l -0.25261,0.139575 2.64089,3.959956 c 1.98269,2.972999 2.654426,4.008098 2.695204,4.153118 0.07142,0.254012 0.03573,0.476997 -0.117348,0.733174 -0.215838,0.361196 -0.642342,0.543883 -1.044517,0.447402 -0.383821,-0.09208 -0.350975,-0.04881 -2.641966,-3.480001 l -2.13531,-3.198028 -0.01057,3.969792 c -0.01179,4.426029 0.0098,4.083543 -0.277288,4.401303 -0.07825,0.08661 -0.20996,0.192007 -0.292697,0.234216 -0.189897,0.09688 -0.526186,0.123716 -0.706196,0.05636 z M 5.5492548,17.148235 C 6.7413564,16.672 7.7169224,16.267653 7.7171795,16.249687 7.717443,16.231721 7.5623496,15.827934 7.3725414,15.352382 7.0622069,14.574859 7.0195343,14.48941 6.949012,14.504298 c -0.115048,0.02429 -4.2513877,1.684354 -4.2902135,1.721822 -0.03528,0.03405 0.6553971,1.812189 0.6979826,1.79695 0.013759,-0.0049 1.0003724,-0.398599 2.1924737,-0.874835 z m 10.1161652,0.75759 c 1.218148,-0.430014 1.731478,-1.892969 1.038603,-2.959943 -0.205099,-0.315835 -0.350375,-0.47225 -0.580476,-0.624983 -0.673405,-0.44698 -1.603472,-0.443564 -2.259557,0.0083 -1.172906,0.807811 -1.165239,2.565065 0.01461,3.348203 0.354152,0.235073 0.642749,0.316305 1.123754,0.316305 0.337692,0 0.460061,-0.01622 0.663067,-0.08788 z m -5.180455,-1.769226 c 0.526774,-0.202216 0.5268,-0.202231 0.535966,-0.329412 0.041,-0.56893 0.196327,-1.129521 0.449371,-1.621833 0.867767,-1.688288 2.81153,-2.530655 4.626107,-2.004811 0.585108,0.169558 1.182451,0.504969 1.580103,0.887235 l 0.151805,0.145933 0.964214,-0.386041 0.964214,-0.386041 L 19.053914,10.6842 C 18.667357,9.7176132 18.341361,8.9170473 18.329478,8.9051644 18.313864,8.8895507 10.146641,12.077613 8.597417,12.704059 l -0.1555237,0.06289 0.7147354,1.785938 c 0.3931046,0.982266 0.734266,1.785939 0.7581365,1.785939 0.02387,0 0.2804608,-0.091 0.5701998,-0.202225 z m 15.14327,-5.086966 c 1.848,-0.739346 3.360014,-1.355268 3.36003,-1.3687144 1.7e-5,-0.013446 -0.476459,-1.2155637 -1.058834,-2.6713717 -0.648002,-1.6198564 -1.075295,-2.6404189 -1.101207,-2.6301603 -1.637679,0.6483585 -6.97742,2.7914546 -6.996546,2.8080521 -0.01493,0.012957 -0.0041,0.099436 0.02405,0.1921769 0.04592,0.1512362 2.000771,5.0617844 2.041212,5.1274734 0.0092,0.0149 0.09647,-0.0045 0.193987,-0.04305 0.09752,-0.03858 1.68931,-0.675059 3.53731,-1.414406 z"
   id="path198" /></svg>
